<svg xmlns="http://www.w3.org/2000/svg" viewBox="0 0 98.03 100"><path d="M96.74 41.47a1.28 1.28 0 0 1-1.26-1A47.48 47.48 0 0 0 58.57 3.53a47.37 47.37 0 0 0-28 2.77 47.54 47.54 0 0 0-15.09 10.16A47.25 47.25 0 0 0 5.31 31.54a46.81 46.81 0 0 0-2.76 8.9 1.29 1.29 0 0 1-1.52 1 1.27 1.27 0 0 1-1-1.52A49.57 49.57 0 0 1 7.55 22 50 50 0 0 1 38.94 1a50.63 50.63 0 0 1 20.15 0 50.21 50.21 0 0 1 36 29.52 50.54 50.54 0 0 1 2.91 9.4 1.29 1.29 0 0 1-1 1.52z" fill="#77c7c8"/><path d="M49 100a49.86 49.86 0 0 1-10.07-1 49.57 49.57 0 0 1-17.88-7.52 50 50 0 0 1-18.12-22A49.08 49.08 0 0 1 0 60.07a1.29 1.29 0 1 1 2.52-.51 47.38 47.38 0 0 0 36.9 36.9 48.08 48.08 0 0 0 19.12 0 46.81 46.81 0 0 0 8.9-2.76 47.25 47.25 0 0 0 15.11-10.17 47.54 47.54 0 0 0 10.16-15.07 47.8 47.8 0 0 0 2.77-8.9 1.29 1.29 0 1 1 2.52.51 49.94 49.94 0 0 1-13.63 25.28 50 50 0 0 1-15.89 10.72A49.08 49.08 0 0 1 59.09 99 50 50 0 0 1 49 100z" fill="#009fe8"/><path d="M21.35 79a1.29 1.29 0 0 1-.91-.38 40.29 40.29 0 0 1-4.93-6 41 41 0 0 1-3.73-6.86 40.55 40.55 0 0 1 0-31.46 41 41 0 0 1 3.73-6.86 39.78 39.78 0 0 1 4.93-6 41 41 0 0 1 6-4.94 40.57 40.57 0 0 1 14.45-6.08 40.93 40.93 0 0 1 16.28 0 1.29 1.29 0 0 1-.51 2.53 38.38 38.38 0 0 0-15.25 0 36.72 36.72 0 0 0-7.1 2.2 37.91 37.91 0 0 0-12 8.11 37.87 37.87 0 0 0-8.11 41.47 37.91 37.91 0 0 0 8.11 12 1.27 1.27 0 0 1 0 1.82 1.29 1.29 0 0 1-.96.45z" fill="#e3007f"/><path d="M49 90.4a40.31 40.31 0 0 1-15.72-3.17 1.29 1.29 0 1 1 1-2.37 37.82 37.82 0 0 0 41.47-8.11 37.83 37.83 0 0 0 10.33-19.13 38.63 38.63 0 0 0 0-15.25 37.64 37.64 0 0 0-5.7-13.52 37 37 0 0 0-4.62-5.6 37.58 37.58 0 0 0-5.6-4.62 1.29 1.29 0 0 1 1.44-2.14 40.42 40.42 0 0 1 17 25.37 40.81 40.81 0 0 1 0 16.28 40.36 40.36 0 0 1-6.08 14.45 41 41 0 0 1-4.94 6 39.78 39.78 0 0 1-6 4.93 40.65 40.65 0 0 1-6.86 3.73A40.41 40.41 0 0 1 49 90.4z" fill="#80358d"/><path d="M49 80.81a31.27 31.27 0 0 1-6.2-.63 30.83 30.83 0 0 1-5.8-1.8 30.08 30.08 0 0 1-5.23-2.84 30.88 30.88 0 0 1-8.32-8.32A29.72 29.72 0 0 1 20.63 62a31 31 0 0 1-1.8-5.78 31.41 31.41 0 0 1 0-12.42 30.73 30.73 0 0 1 1.8-5.8 30.17 30.17 0 0 1 2.84-5.24 30.89 30.89 0 0 1 3.76-4.56 1.29 1.29 0 0 1 1.82 1.8A28.14 28.14 0 0 0 23 39a27.84 27.84 0 0 0-1.65 5.3 28.28 28.28 0 0 0 11.88 29.1A27.76 27.76 0 0 0 38 76a28.29 28.29 0 0 0 5.3 1.65 28.69 28.69 0 0 0 11.38 0 28.33 28.33 0 0 0 10.1-4.25A28.7 28.7 0 0 0 69 70a29.48 29.48 0 0 0 3.45-4.18 1.29 1.29 0 0 1 2.13 1.44 30.88 30.88 0 0 1-8.32 8.32 30.17 30.17 0 0 1-5.26 2.8 30.5 30.5 0 0 1-5.78 1.8 31.45 31.45 0 0 1-6.22.63z" fill="#f08b00"/><path d="M77.93 57.23a1.06 1.06 0 0 1-.25 0 1.29 1.29 0 0 1-1-1.52 28.2 28.2 0 0 0 0-11.38A27.81 27.81 0 0 0 75 39a29.28 29.28 0 0 0-2.6-4.8A30.05 30.05 0 0 0 69 30a29.29 29.29 0 0 0-4.18-3.44A28.6 28.6 0 0 0 60 24a27.81 27.81 0 0 0-5.3-1.64 28.69 28.69 0 0 0-11.38 0A28.26 28.26 0 0 0 38 24a1.29 1.29 0 0 1-1-2.37 30.08 30.08 0 0 1 5.79-1.79 31.24 31.24 0 0 1 12.41 0 29.77 29.77 0 0 1 5.8 1.77 30.85 30.85 0 0 1 5.24 2.84 30.88 30.88 0 0 1 8.32 8.32A30.85 30.85 0 0 1 77.4 38a30 30 0 0 1 1.79 5.78 30.92 30.92 0 0 1 0 12.42 1.28 1.28 0 0 1-1.26 1.03z" fill="#77c7c8"/><path d="M49 71.21a21.78 21.78 0 0 1-4.27-.43 21.35 21.35 0 0 1-4-1.24A21.49 21.49 0 0 1 34 65a21.54 21.54 0 0 1-2.58-3.14 21 21 0 0 1-2-3.61 21.35 21.35 0 0 1-1.24-4 21.47 21.47 0 0 1 0-8.55 21.35 21.35 0 0 1 1.24-4 20.57 20.57 0 0 1 2-3.6 21.22 21.22 0 0 1 9.33-7.69 21.32 21.32 0 0 1 4-1.23 21 21 0 0 1 4.25-.39 1.29 1.29 0 1 1 0 2.57 18.78 18.78 0 0 0-3.75.38 17.76 17.76 0 0 0-3.5 1.09 18.66 18.66 0 0 0-3.17 1.71 19.36 19.36 0 0 0-2.75 2.28 18.28 18.28 0 0 0-2.28 2.76 19.35 19.35 0 0 0-1.72 3.16 18.65 18.65 0 0 0-1.08 3.5 18.74 18.74 0 0 0 0 7.51 18.42 18.42 0 0 0 1.08 3.5 19 19 0 0 0 1.72 3.17 18.68 18.68 0 0 0 8.2 6.75 17.73 17.73 0 0 0 3.5 1.08 18.62 18.62 0 0 0 7.51 0 17.94 17.94 0 0 0 3.5-1.08 18.92 18.92 0 0 0 5.92-4 20 20 0 0 0 2.28-2.76 18.29 18.29 0 0 0 1.71-3.17 17.76 17.76 0 0 0 1.09-3.5 18.74 18.74 0 0 0 0-7.51 18 18 0 0 0-1.09-3.5 18.57 18.57 0 0 0-1.71-3.16 18.9 18.9 0 0 0-2.28-2.76A1.29 1.29 0 1 1 64 35a21.61 21.61 0 0 1 2.59 3.14 21.27 21.27 0 0 1 2 20.11A21.3 21.3 0 0 1 64 65a21.6 21.6 0 0 1-6.74 4.54 21.35 21.35 0 0 1-4 1.24 21.88 21.88 0 0 1-4.26.43z" fill="#009fe8"/></svg>